<svg width="33" height="16" viewBox="0 0 33 16" fill="none" xmlns="http://www.w3.org/2000/svg">
<path d="M25.033 10L28.344 5.435V6.733L25.176 2.3H27.2L29.389 5.391L28.542 5.402L30.698 2.3H32.634L29.488 6.656V5.38L32.821 10H30.764L28.498 6.733H29.312L27.079 10H25.033Z" fill="#424242"/>
<path d="M6.16 12.91H7.845V13.54H6.16V12.91ZM6.22 14.35H8.125V15H5.415V11.5H8.06V12.15H6.22V14.35ZM11.3645 15.06C11.0912 15.06 10.8362 15.015 10.5995 14.925C10.3662 14.835 10.1628 14.7083 9.98949 14.545C9.81949 14.3817 9.68616 14.19 9.58949 13.97C9.49616 13.75 9.44949 13.51 9.44949 13.25C9.44949 12.99 9.49616 12.75 9.58949 12.53C9.68616 12.31 9.82116 12.1183 9.99449 11.955C10.1678 11.7917 10.3712 11.665 10.6045 11.575C10.8378 11.485 11.0912 11.44 11.3645 11.44C11.6412 11.44 11.8945 11.485 12.1245 11.575C12.3578 11.665 12.5595 11.7917 12.7295 11.955C12.9028 12.115 13.0378 12.305 13.1345 12.525C13.2312 12.745 13.2795 12.9867 13.2795 13.25C13.2795 13.51 13.2312 13.7517 13.1345 13.975C13.0378 14.195 12.9028 14.3867 12.7295 14.55C12.5595 14.71 12.3578 14.835 12.1245 14.925C11.8945 15.015 11.6412 15.06 11.3645 15.06ZM12.5095 15.805C12.3728 15.805 12.2428 15.79 12.1195 15.76C11.9995 15.73 11.8795 15.6817 11.7595 15.615C11.6428 15.5483 11.5195 15.4583 11.3895 15.345C11.2628 15.2317 11.1245 15.0917 10.9745 14.925L11.8245 14.71C11.9145 14.8333 11.9978 14.9317 12.0745 15.005C12.1512 15.0783 12.2245 15.13 12.2945 15.16C12.3678 15.19 12.4445 15.205 12.5245 15.205C12.7378 15.205 12.9278 15.1183 13.0945 14.945L13.4545 15.375C13.2178 15.6617 12.9028 15.805 12.5095 15.805ZM11.3645 14.37C11.5212 14.37 11.6645 14.3433 11.7945 14.29C11.9278 14.2367 12.0445 14.16 12.1445 14.06C12.2445 13.96 12.3212 13.8417 12.3745 13.705C12.4312 13.565 12.4595 13.4133 12.4595 13.25C12.4595 13.0833 12.4312 12.9317 12.3745 12.795C12.3212 12.6583 12.2445 12.54 12.1445 12.44C12.0445 12.34 11.9278 12.2633 11.7945 12.21C11.6645 12.1567 11.5212 12.13 11.3645 12.13C11.2078 12.13 11.0628 12.1567 10.9295 12.21C10.7962 12.2633 10.6795 12.34 10.5795 12.44C10.4828 12.54 10.4062 12.6583 10.3495 12.795C10.2962 12.9317 10.2695 13.0833 10.2695 13.25C10.2695 13.4133 10.2962 13.565 10.3495 13.705C10.4062 13.8417 10.4828 13.96 10.5795 14.06C10.6795 14.16 10.7962 14.2367 10.9295 14.29C11.0628 14.3433 11.2078 14.37 11.3645 14.37ZM16.3432 15.06C15.8466 15.06 15.4582 14.9217 15.1782 14.645C14.8982 14.3683 14.7582 13.9733 14.7582 13.46V11.5H15.5682V13.43C15.5682 13.7633 15.6366 14.0033 15.7732 14.15C15.9099 14.2967 16.1016 14.37 16.3482 14.37C16.5949 14.37 16.7866 14.2967 16.9232 14.15C17.0599 14.0033 17.1282 13.7633 17.1282 13.43V11.5H17.9282V13.46C17.9282 13.9733 17.7882 14.3683 17.5082 14.645C17.2282 14.9217 16.8399 15.06 16.3432 15.06ZM19.6287 15V11.5H20.4387V15H19.6287ZM22.8943 15V12.16H21.7743V11.5H24.8243V12.16H23.7043V15H22.8943ZM26.9618 15V13.57L27.1468 14.06L25.6068 11.5H26.4668L27.6468 13.465H27.1518L28.3368 11.5H29.1318L27.5918 14.06L27.7718 13.57V15H26.9618Z" fill="#424242"/>
<path d="M0.913 10V2.3H4.675C5.643 2.3 6.369 2.48333 6.853 2.85C7.34433 3.21667 7.59 3.70067 7.59 4.302C7.59 4.70533 7.491 5.05733 7.293 5.358C7.095 5.65133 6.82367 5.87867 6.479 6.04C6.13433 6.20133 5.73833 6.282 5.291 6.282L5.5 5.831C5.984 5.831 6.413 5.91167 6.787 6.073C7.161 6.227 7.45067 6.458 7.656 6.766C7.86867 7.074 7.975 7.45167 7.975 7.899C7.975 8.559 7.71467 9.076 7.194 9.45C6.67333 9.81667 5.907 10 4.895 10H0.913ZM2.684 8.658H4.763C5.225 8.658 5.57333 8.58467 5.808 8.438C6.05 8.284 6.171 8.042 6.171 7.712C6.171 7.38933 6.05 7.151 5.808 6.997C5.57333 6.83567 5.225 6.755 4.763 6.755H2.552V5.457H4.455C4.88767 5.457 5.21767 5.38367 5.445 5.237C5.67967 5.083 5.797 4.852 5.797 4.544C5.797 4.24333 5.67967 4.01967 5.445 3.873C5.21767 3.719 4.88767 3.642 4.455 3.642H2.684V8.658ZM9.32413 10V2.3H12.6571C13.3465 2.3 13.9405 2.41367 14.4391 2.641C14.9378 2.861 15.3228 3.18 15.5941 3.598C15.8655 4.016 16.0011 4.51467 16.0011 5.094C16.0011 5.666 15.8655 6.161 15.5941 6.579C15.3228 6.98967 14.9378 7.305 14.4391 7.525C13.9405 7.745 13.3465 7.855 12.6571 7.855H10.3141L11.1061 7.074V10H9.32413ZM14.2191 10L12.2941 7.206H14.1971L16.1441 10H14.2191ZM11.1061 7.272L10.3141 6.436H12.5581C13.1081 6.436 13.5188 6.31867 13.7901 6.084C14.0615 5.842 14.1971 5.512 14.1971 5.094C14.1971 4.66867 14.0615 4.33867 13.7901 4.104C13.5188 3.86933 13.1081 3.752 12.5581 3.752H10.3141L11.1061 2.905V7.272ZM21.153 10.132C20.5443 10.132 19.9797 10.033 19.459 9.835C18.9457 9.637 18.4983 9.35833 18.117 8.999C17.743 8.63967 17.4497 8.218 17.237 7.734C17.0317 7.25 16.929 6.722 16.929 6.15C16.929 5.578 17.0317 5.05 17.237 4.566C17.4497 4.082 17.7467 3.66033 18.128 3.301C18.5093 2.94167 18.9567 2.663 19.47 2.465C19.9833 2.267 20.5407 2.168 21.142 2.168C21.7507 2.168 22.308 2.267 22.814 2.465C23.3273 2.663 23.771 2.94167 24.145 3.301C24.5263 3.66033 24.8233 4.082 25.036 4.566C25.2487 5.04267 25.355 5.57067 25.355 6.15C25.355 6.722 25.2487 7.25367 25.036 7.745C24.8233 8.229 24.5263 8.65067 24.145 9.01C23.771 9.362 23.3273 9.637 22.814 9.835C22.308 10.033 21.7543 10.132 21.153 10.132ZM21.142 8.614C21.4867 8.614 21.802 8.55533 22.088 8.438C22.3813 8.32067 22.638 8.152 22.858 7.932C23.078 7.712 23.2467 7.45167 23.364 7.151C23.4887 6.85033 23.551 6.51667 23.551 6.15C23.551 5.78333 23.4887 5.44967 23.364 5.149C23.2467 4.84833 23.078 4.588 22.858 4.368C22.6453 4.148 22.3923 3.97933 22.099 3.862C21.8057 3.74467 21.4867 3.686 21.142 3.686C20.7973 3.686 20.4783 3.74467 20.185 3.862C19.899 3.97933 19.646 4.148 19.426 4.368C19.206 4.588 19.0337 4.84833 18.909 5.149C18.7917 5.44967 18.733 5.78333 18.733 6.15C18.733 6.50933 18.7917 6.843 18.909 7.151C19.0337 7.45167 19.2023 7.712 19.415 7.932C19.635 8.152 19.8917 8.32067 20.185 8.438C20.4783 8.55533 20.7973 8.614 21.142 8.614Z" fill="#424242"/>
</svg>
